<?xml version="1.0" standalone="no"?>
<!DOCTYPE svg PUBLIC "-//W3C//DTD SVG 20010904//EN"
 "http://www.w3.org/TR/2001/REC-SVG-20010904/DTD/svg10.dtd">
<svg version="1.0" xmlns="http://www.w3.org/2000/svg"
 width="139px" height="86px" viewBox="0 0 400.000000 129.000000"
 preserveAspectRatio="xMidYMid meet">

<g transform="translate(0.000000,129.000000) scale(0.100000,-0.100000)"
fill="#000000" stroke="none">
<path d="M1105 1035 c-44 -27 -66 -61 -156 -238 -84 -167 -232 -331 -258 -288
-13 21 -1 62 55 180 95 199 177 321 216 321 10 0 18 5 18 10 0 14 -13 13 -57
-4 -22 -8 -96 -17 -173 -21 -111 -5 -143 -10 -180 -28 -54 -27 -71 -62 -50
-104 l14 -28 4 35 c7 70 69 102 195 100 40 -1 82 2 95 6 20 6 18 -1 -24 -72
-92 -156 -164 -313 -164 -361 0 -36 4 -45 25 -55 37 -16 77 5 142 76 30 34 52
52 48 41 -35 -100 8 -146 90 -95 32 20 160 168 152 176 -2 2 -31 -28 -64 -68
-32 -40 -76 -82 -97 -93 -37 -20 -37 -20 -52 0 -16 22 -11 61 14 110 8 17 54
71 101 120 127 132 201 255 176 294 -9 16 -26 13 -70 -14z m45 -16 c0 -43 -74
-161 -148 -238 l-73 -76 37 70 c93 174 153 265 175 265 5 0 9 -9 9 -21z"/>
<path d="M2960 1044 c-19 -8 -49 -26 -68 -41 -38 -28 -34 -28 -437 -7 -166 9
-235 -12 -235 -71 0 -25 44 -85 62 -85 6 0 4 8 -5 18 -39 43 -12 83 67 103 48
12 306 7 328 -7 5 -3 -4 -14 -20 -24 -21 -13 -38 -39 -61 -97 -55 -134 -100
-224 -131 -264 -56 -70 -129 -98 -173 -65 -10 8 -24 33 -32 57 l-15 44 5 -43
c3 -24 11 -52 18 -62 18 -29 71 -52 104 -44 84 20 134 84 219 282 31 72 71
148 89 169 31 36 36 38 85 36 29 -1 55 -4 57 -7 3 -3 -6 -20 -20 -38 -43 -57
-187 -362 -187 -397 0 -28 31 -6 58 42 41 73 162 194 162 162 0 -3 -17 -40
-39 -83 -52 -105 -56 -119 -34 -130 40 -20 80 5 163 104 44 52 80 93 80 90 0
-2 -16 -37 -35 -77 -19 -41 -35 -84 -35 -98 0 -21 3 -23 35 -18 44 7 76 33
150 124 33 39 61 70 62 69 2 -1 -15 -47 -37 -101 -22 -54 -38 -100 -35 -103
13 -13 37 14 70 77 34 65 111 151 134 151 11 0 -5 -43 -44 -115 -79 -149 34
-149 137 0 14 19 1 11 -33 -22 -59 -57 -95 -70 -84 -30 3 12 24 57 46 99 40
79 47 108 29 108 -22 0 -77 -34 -119 -74 l-44 -41 32 59 c17 33 30 60 28 61
-1 1 -15 -2 -32 -7 -20 -5 -45 -29 -75 -69 -67 -91 -136 -159 -160 -159 -28 0
-23 16 41 139 27 52 48 95 47 96 -2 1 -16 -2 -33 -7 -20 -6 -46 -30 -80 -75
-73 -98 -104 -132 -137 -149 -49 -25 -46 6 11 117 44 85 49 101 35 106 -26 10
-80 -25 -130 -84 -26 -30 -48 -52 -50 -50 -6 6 41 128 77 200 39 77 76 127 94
127 7 0 23 13 34 29 39 55 144 78 181 41 l20 -20 0 23 c0 13 -5 28 -12 35 -16
16 -86 14 -128 -4z"/>
<path d="M3723 1045 c-49 -21 -124 -101 -172 -184 -41 -69 -171 -346 -171
-363 0 -4 8 -8 18 -8 10 0 29 21 47 53 38 67 40 71 25 62 -17 -10 -8 16 48
145 54 123 115 216 162 248 36 24 108 30 128 10 9 -9 12 -8 12 8 0 43 -38 55
-97 29z"/>
<path d="M740 939 c-19 -11 -73 -61 -120 -110 l-85 -89 -63 0 c-35 0 -84 -6
-110 -12 l-47 -13 90 -5 90 -5 -72 -60 c-115 -97 -177 -130 -242 -130 l-56 0
1 44 c1 41 0 42 -12 20 -20 -37 -17 -86 5 -99 29 -15 75 -12 129 8 63 24 120
64 208 146 l72 66 61 0 c56 0 111 15 111 30 0 3 -29 4 -65 2 -36 -3 -65 0 -65
5 0 13 126 152 169 186 57 45 57 49 1 16z"/>
<path d="M1929 877 c-15 -12 -39 -46 -54 -74 -17 -31 -35 -53 -45 -53 -9 0
-25 -7 -36 -15 -19 -14 -18 -14 3 -15 17 0 21 -4 16 -17 -4 -11 -3 -14 6 -9
13 8 9 -1 -43 -117 -33 -74 -33 -87 2 -87 42 0 84 31 157 117 59 70 95 103 95
89 0 -2 -18 -42 -40 -87 -48 -99 -50 -119 -14 -119 36 0 85 32 134 87 22 25
40 44 40 42 0 -13 -46 -122 -81 -191 -49 -98 -117 -173 -184 -204 -98 -46
-164 -22 -178 66 -3 16 -5 10 -5 -15 -2 -69 42 -105 130 -105 105 0 192 89
277 286 93 213 119 264 143 273 l23 10 -23 0 c-37 1 -61 -17 -99 -76 -48 -76
-111 -143 -134 -143 -28 0 -24 20 28 120 49 96 49 119 1 101 -14 -5 -60 -50
-102 -100 -78 -92 -110 -121 -133 -121 -20 0 -15 39 16 115 30 74 52 95 104
95 16 0 26 4 22 10 -3 6 -22 10 -40 10 l-34 0 29 50 c16 27 36 61 46 75 20 31
8 32 -27 2z"/>
<path d="M3090 872 c0 -26 10 -33 31 -21 28 14 24 39 -6 39 -18 0 -25 -5 -25
-18z"/>
<path d="M1157 749 c-33 -9 -59 -38 -52 -57 3 -7 -13 -56 -34 -110 -22 -53
-37 -99 -35 -101 11 -12 37 15 58 62 13 29 38 70 56 90 36 42 89 82 96 74 3
-3 -13 -41 -35 -86 -23 -44 -41 -90 -41 -101 0 -34 24 -22 49 25 38 73 141
179 157 163 2 -3 -16 -48 -42 -101 -25 -53 -43 -100 -39 -106 15 -25 66 -11
108 30 40 39 41 40 6 15 -38 -28 -69 -34 -69 -13 1 6 23 55 50 107 31 60 46
98 40 104 -14 14 -72 -16 -127 -66 l-46 -43 22 42 c23 46 27 73 11 73 -21 0
-73 -32 -118 -73 l-46 -42 33 59 c18 32 31 59 29 61 -2 1 -16 -1 -31 -6z"/>
<path d="M1610 743 c-14 -3 -37 -14 -52 -25 -35 -24 -115 -128 -115 -148 0 -9
-3 -27 -6 -42 -14 -56 41 -48 110 15 30 27 44 35 38 22 -4 -11 -10 -33 -13
-49 -5 -28 -4 -29 32 -23 20 3 49 16 65 29 35 28 145 157 139 164 -3 2 -28
-25 -57 -61 -80 -98 -131 -131 -131 -86 0 23 64 147 91 177 10 11 19 23 19 27
0 8 -79 7 -120 0z m40 -30 c0 -25 -56 -107 -105 -152 -73 -67 -84 -52 -35 47
17 33 47 75 66 91 38 34 74 41 74 14z"/>
<path d="M3573 715 c-22 -19 -42 -32 -45 -30 -7 7 -35 -27 -42 -52 -4 -13 -3
-23 1 -23 5 0 15 -22 22 -49 7 -28 19 -55 27 -62 26 -21 64 -13 100 22 31 30
34 31 34 12 0 -31 37 -53 88 -53 35 0 49 6 73 29 39 40 38 75 -6 130 -19 24
-35 49 -35 55 0 19 22 36 47 36 17 0 24 -7 29 -27 10 -48 11 -49 24 -18 16 41
2 60 -45 60 -37 0 -42 -4 -114 -98 -85 -110 -133 -149 -156 -126 -8 8 -21 41
-29 73 -15 58 -15 60 6 83 27 29 55 38 72 24 17 -14 41 11 32 34 -9 24 -40 17
-83 -20z m218 -105 c37 -51 42 -70 24 -96 -10 -16 -25 -24 -44 -24 -33 0 -81
34 -81 58 0 21 63 114 70 104 4 -4 17 -23 31 -42z"/>
<path d="M268 694 c-16 -8 -28 -23 -28 -34 0 -31 17 -32 23 -2 3 16 16 33 29
40 13 6 19 11 13 11 -5 0 -22 -7 -37 -15z"/>
</g>
</svg>
